<svg width="37" height="34" viewBox="0 0 37 34" fill="none" xmlns="http://www.w3.org/2000/svg">
<g clip-path="url(#clip0_2459_2406)">
<path d="M21.5904 0.00418101C21.6303 -0.0142343 21.6697 0.0320035 21.6452 0.0684083C19.3029 3.53928 19.3759 7.17135 21.8323 10.9528C24.328 14.7806 25.7107 17.4276 25.9799 18.9139C26.4408 17.9162 26.6823 16.0339 26.7087 13.2869C26.7091 13.2427 26.7681 13.2275 26.7899 13.266C29.4277 17.9276 30.3594 22.0105 29.4757 24.9844C29.4633 25.0264 29.4107 25.039 29.3798 25.0081C28.9082 24.5366 28.1436 24.5367 27.672 25.0081L25.3108 27.3687L20.2098 22.2682C19.2665 21.325 17.7375 21.3251 16.7942 22.2682L11.6885 27.3726L9.34141 25.0258C8.96212 24.6466 8.39327 24.5723 7.93975 24.803C7.83174 24.858 7.68928 24.8161 7.65429 24.7001C7.0154 22.5819 6.93628 19.9547 7.48764 17.1802C7.49688 17.1337 7.56383 17.1341 7.57334 17.1805C8.04003 19.4581 9.05776 21.0801 10.6356 22.0284C9.66976 17.5483 9.87564 14.3168 11.2319 12.3462C11.254 12.314 11.3035 12.3273 11.3091 12.3659C11.7829 15.6333 12.6376 17.4118 13.848 17.7043C12.073 9.1088 14.6577 3.20608 21.5904 0.00418101Z" fill="black"/>
<path d="M28.2226 27.0711C28.6955 26.5982 29.4625 26.5982 29.9354 27.0711L37 34.135H32.0683L26.7559 28.8231C26.6771 28.7443 26.6771 28.6165 26.7559 28.5377L28.2226 27.0711Z" fill="black"/>
<path d="M17.3563 24.2748C17.9868 23.6445 19.0089 23.6445 19.6394 24.2748L29.5182 34.1525H24.616L18.8112 28.3487C18.6536 28.1911 18.3981 28.1911 18.2404 28.3487L16.2029 30.386C16.1242 30.4648 16.1241 30.5926 16.2029 30.6714L19.684 34.1525H7.47754L17.3563 24.2748Z" fill="black"/>
<path d="M7.06424 27.0719C7.53715 26.5991 8.3041 26.5994 8.77699 27.0723L10.2438 28.5389C10.3225 28.6177 10.3226 28.7454 10.2438 28.8242L4.93129 34.1358H0L7.06424 27.0719Z" fill="black"/>
</g>
<defs>
<clipPath id="clip0_2459_2406">
<rect width="37" height="34" fill="white"/>
</clipPath>
</defs>
</svg>
